<svg width="60" height="46" viewBox="0 0 60 46" fill="none" xmlns="http://www.w3.org/2000/svg">
<path fill-rule="evenodd" clip-rule="evenodd" d="M20.5481 23.4741C20.7861 24.4648 21.1828 25.4108 21.7219 26.2778L20.9048 28.0997L23.0731 30.247L24.9124 29.438C25.7881 29.972 26.7439 30.3648 27.7444 30.6005L28.4669 32.4592H31.5334L32.2561 30.6C33.2564 30.3642 34.2118 29.9715 35.0874 29.4377L36.9271 30.2468L39.0955 28.0996L38.2786 26.2782C38.8179 25.411 39.2145 24.4645 39.4526 23.4738L41.3296 22.7583V19.7216L39.4523 19.006C39.2141 18.0154 38.8176 17.0693 38.2785 16.2023L39.0956 14.3805L36.9274 12.2332L35.0881 13.0421C34.2124 12.5081 33.2566 12.1153 32.2561 11.8797L31.5336 10.0208H28.4671L27.7446 11.8799C26.7443 12.1156 25.7886 12.5084 24.9131 13.0422L23.0735 12.2332L20.9051 14.3805L21.7223 16.2023C21.1831 17.0694 20.7865 18.0155 20.5485 19.006L18.6711 19.7216V22.7583L20.5481 23.4741ZM24.1846 21.2402C24.1846 18.0593 26.788 15.4814 30 15.4814C33.212 15.4814 35.8154 18.0593 35.8154 21.2402C35.8154 24.4209 33.212 26.999 30 26.999C26.788 26.999 24.1846 24.4209 24.1846 21.2402ZM59.8507 40.1266L52.9849 45.8992C52.7094 46.1309 52.2874 45.9376 52.2874 45.5796V42.5037H39.4869C42.3966 41.2284 44.9989 39.3839 47.1474 37.1102H52.2874V34.0342C52.2874 33.6763 52.7093 33.483 52.9849 33.7146L59.8507 39.4873C60.0498 39.6549 60.0498 39.9592 59.8507 40.1266ZM51.4485 22.2303C50.926 33.5141 41.5236 42.5037 30 42.5037H0V37.1102H30C38.515 37.1102 45.4776 30.5336 45.994 22.2303H51.4485ZM31 0C42.063 0.502315 50.9413 9.29444 51.4485 20.2498H45.994C45.498 12.2742 39.054 5.89286 31 5.40168V0ZM29 5.4018C23.842 5.71634 19.3446 8.44701 16.6465 12.4648L11.9223 9.7637C15.5723 4.13748 21.8266 0.326047 29 0.000247432V5.4018ZM15.647 14.1749C14.5768 16.3026 13.974 18.7015 13.974 21.2402C13.974 27.2159 17.3098 32.4194 22.2374 35.1264H13.7386C10.4914 31.401 8.5275 26.5477 8.5275 21.2402C8.5275 17.719 9.39275 14.3984 10.9228 11.4739L15.647 14.1749Z" fill="white"/>
</svg>
