<svg width="11" height="10" viewBox="0 0 11 10" fill="none" xmlns="http://www.w3.org/2000/svg">
<path d="M5.31714 6.92568C5.20857 6.92568 5.1 6.88568 5.01428 6.79997C4.84857 6.63425 4.84857 6.35997 5.01428 6.19425L6.17428 5.03425L5.01428 3.87425C4.84857 3.70854 4.84857 3.43425 5.01428 3.26854C5.18 3.10282 5.45428 3.10282 5.62 3.26854L7.08285 4.73139C7.24857 4.89711 7.24857 5.1714 7.08285 5.33711L5.62 6.79997C5.54 6.88568 5.42571 6.92568 5.31714 6.92568Z" fill="white"/>
<path d="M6.74 5.46289H0.928571C0.694286 5.46289 0.5 5.26861 0.5 5.03432C0.5 4.80003 0.694286 4.60575 0.928571 4.60575H6.74C6.97429 4.60575 7.16857 4.80003 7.16857 5.03432C7.16857 5.26861 6.97429 5.46289 6.74 5.46289Z" fill="white"/>
<path d="M5.5 10C5.26571 10 5.07143 9.80571 5.07143 9.57143C5.07143 9.33714 5.26571 9.14286 5.5 9.14286C7.94 9.14286 9.64286 7.44 9.64286 5C9.64286 2.56 7.94 0.857143 5.5 0.857143C5.26571 0.857143 5.07143 0.662857 5.07143 0.428571C5.07143 0.194286 5.26571 0 5.5 0C8.44286 0 10.5 2.05714 10.5 5C10.5 7.94286 8.44286 10 5.5 10Z" fill="white"/>
</svg>
