<svg width="60" height="40" viewBox="0 0 60 40" fill="none" xmlns="http://www.w3.org/2000/svg">
<path d="M30 0C16.3636 0 4.63636 8.26667 0 20C4.63636 31.7333 16.3636 40 30 40C43.6364 40 55.3636 31.7333 60 20C55.3636 8.26667 43.6364 0 30 0ZM30 33.3333C22.3636 33.3333 16.3636 27.4667 16.3636 20C16.3636 12.5333 22.3636 6.66667 30 6.66667C37.6364 6.66667 43.6364 12.5333 43.6364 20C43.6364 27.4667 37.6364 33.3333 30 33.3333ZM30 12C25.3636 12 21.8182 15.4667 21.8182 20C21.8182 24.5333 25.3636 28 30 28C34.6364 28 38.1818 24.5333 38.1818 20C38.1818 15.4667 34.6364 12 30 12Z" fill="#EDEDED"/>
</svg>
