<svg width="14" height="14" viewBox="0 0 14 14" fill="none" xmlns="http://www.w3.org/2000/svg">
<path d="M9.94369 -0.00341797H4.07476C1.52549 -0.00341797 0.0057373 1.51634 0.0057373 4.06561V9.92753C0.0057373 12.4838 1.52549 14.0036 4.07476 14.0036H9.93669C12.486 14.0036 14.0057 12.4838 14.0057 9.93453V4.06561C14.0127 1.51634 12.493 -0.00341797 9.94369 -0.00341797ZM9.81062 7.52533H7.53449V9.80147C7.53449 10.0886 7.29637 10.3267 7.00923 10.3267C6.72208 10.3267 6.48397 10.0886 6.48397 9.80147V7.52533H4.20783C3.92069 7.52533 3.68257 7.28721 3.68257 7.00007C3.68257 6.71293 3.92069 6.47481 4.20783 6.47481H6.48397V4.19868C6.48397 3.91153 6.72208 3.67341 7.00923 3.67341C7.29637 3.67341 7.53449 3.91153 7.53449 4.19868V6.47481H9.81062C10.0978 6.47481 10.3359 6.71293 10.3359 7.00007C10.3359 7.28721 10.0978 7.52533 9.81062 7.52533Z" fill="#B936EF"/>
</svg>
