<svg width="605" height="387" viewBox="0 0 605 387" fill="none" xmlns="http://www.w3.org/2000/svg">
<path fill-rule="evenodd" clip-rule="evenodd" d="M115.361 290.526C112.861 265.896 88.7263 249.258 68.6297 243.789C48.5512 238.296 31.7085 248.794 13.8999 230.985C-3.90869 213.176 -3.90869 173.448 13.8999 155.639C31.7085 137.831 48.5512 148.299 68.6297 142.835C88.7263 137.342 112.861 120.729 115.361 96.0983C117.884 71.4741 108.509 40.5717 129.082 20.0042C155.536 -6.44909 198.433 -6.44909 224.881 20.0042C245.442 40.5656 238.343 73.9432 238.602 96.0983C238.862 118.235 252.058 131.432 274.189 131.685C296.314 131.951 329.716 124.815 350.289 145.407C370.851 165.981 363.746 199.358 363.999 221.507C364.265 243.632 381.524 254.855 399.586 257.094C417.66 259.334 435.644 261.592 455.976 257.094C523.878 242.038 518.125 135.851 455.976 129.494C431.352 126.995 400.449 136.376 379.882 115.802C353.429 89.3492 353.429 46.4515 379.882 19.9982C406.335 -6.45513 449.233 -6.45513 475.68 19.9982C496.242 40.5596 486.878 71.4681 489.402 96.0923C491.901 120.722 516.036 137.342 536.133 142.829C556.211 148.293 573.054 137.825 590.863 155.633C608.659 173.442 608.659 213.176 590.863 230.979C573.054 248.788 556.211 238.29 536.133 243.783C516.036 249.258 491.901 265.89 489.402 290.52C486.878 315.144 496.242 346.023 475.68 366.614C449.227 393.067 406.329 393.067 379.882 366.614C359.308 346.023 366.42 312.645 366.16 290.52C365.895 268.383 352.698 255.162 330.573 254.903C308.436 254.637 275.035 261.773 254.473 241.211C233.912 220.62 241.017 187.242 240.751 165.111C240.492 142.986 223.239 131.764 205.164 129.494C187.096 127.26 169.106 124.997 148.774 129.494C80.8844 144.574 86.6315 250.737 148.774 257.094C173.405 259.618 204.313 250.224 224.875 270.816C251.328 297.269 251.328 340.167 224.875 366.62C198.421 393.073 155.524 393.073 129.076 366.62C108.503 346.029 117.878 315.15 115.355 290.526H115.361Z" fill="#B936EF"/>
</svg>
