<svg width="48" height="46" viewBox="0 0 48 46" fill="none" xmlns="http://www.w3.org/2000/svg">
<path d="M7.11111 9.01961C9.56569 9.01961 11.5556 7.00048 11.5556 4.5098C11.5556 2.01911 9.56569 0 7.11111 0C4.65652 0 2.66667 2.01911 2.66667 4.5098C2.66667 7.00048 4.65652 9.01961 7.11111 9.01961Z" fill="white"/>
<path d="M14.2222 20.7451H0C0 16.2353 1.91822 11.7255 7.11111 11.7255C12.304 11.7255 14.2222 16.2353 14.2222 20.7451Z" fill="white"/>
<path d="M40.8889 9.01961C43.3435 9.01961 45.3333 7.00048 45.3333 4.5098C45.3333 2.01911 43.3435 0 40.8889 0C38.4343 0 36.4444 2.01911 36.4444 4.5098C36.4444 7.00048 38.4343 9.01961 40.8889 9.01961Z" fill="white"/>
<path d="M48 20.7451H33.7778C33.7778 16.2353 35.696 11.7255 40.8889 11.7255C46.0818 11.7255 48 16.2353 48 20.7451Z" fill="white"/>
<path d="M24 34.2745C26.4546 34.2745 28.4444 32.2554 28.4444 29.7647C28.4444 27.274 26.4546 25.2549 24 25.2549C21.5454 25.2549 19.5556 27.274 19.5556 29.7647C19.5556 32.2554 21.5454 34.2745 24 34.2745Z" fill="white"/>
<path d="M31.1111 46H16.8889C16.8889 41.4902 18.8071 36.9804 24 36.9804C29.1929 36.9804 31.1111 41.4902 31.1111 46Z" fill="white"/>
<path d="M15.2809 39.5141C9.39822 36.6955 5.15288 31.1556 3.92621 24.6949L7.41778 24.0112C8.43111 29.3472 11.9387 33.9219 16.7991 36.2508L15.2809 39.5141Z" fill="white"/>
<path d="M32.0408 5.67063C27.1377 2.97196 20.8621 2.97196 15.959 5.67063L14.263 2.49933C17.2337 0.864078 20.6008 0 23.9999 0C27.399 0 30.7661 0.864078 33.7368 2.49933L32.0408 5.67063Z" fill="white"/>
<path d="M32.7191 39.5141L31.2019 36.2517C36.0623 33.9228 39.5698 29.3481 40.5831 24.0121L44.0747 24.6958C42.8462 31.1556 38.6018 36.6955 32.7191 39.5141Z" fill="white"/>
</svg>
