<svg width="1216" height="483" viewBox="0 0 1216 483" fill="none" xmlns="http://www.w3.org/2000/svg">
<g filter="url(#filter0_f_271_11)">
<path fill-rule="evenodd" clip-rule="evenodd" d="M359.845 359.02C356.822 329.245 327.634 309.138 303.335 302.521C279.058 295.881 258.692 308.571 237.154 287.04C215.615 265.508 215.615 217.484 237.154 195.953C258.692 174.421 279.058 187.082 303.335 180.472C327.634 173.832 356.822 153.748 359.845 123.972C362.897 94.2042 351.561 56.8412 376.435 31.9823C408.421 0.00590297 460.296 0.00590297 492.282 31.9823C517.149 56.8412 508.566 97.1885 508.872 123.972C509.186 150.734 525.141 166.685 551.911 166.998C578.666 167.319 619.063 158.694 643.937 183.583C668.803 208.457 660.206 248.804 660.519 275.58C660.84 302.327 681.707 315.898 703.558 318.606C725.417 321.314 747.164 324.045 771.747 318.606C853.855 300.409 846.907 172.041 771.747 164.357C741.97 161.335 704.603 172.675 679.729 147.802C647.743 115.825 647.743 63.9661 679.729 31.9898C711.715 0.0133652 763.59 0.0133652 795.577 31.9898C820.443 56.8487 809.114 94.2117 812.167 123.98C815.189 153.755 844.377 173.839 868.676 180.479C892.953 187.082 913.32 174.429 934.858 195.96C956.381 217.492 956.381 265.516 934.858 287.047C913.32 308.579 892.953 295.888 868.676 302.528C844.377 309.146 815.189 329.252 812.167 359.028C809.114 388.796 820.443 426.121 795.577 451.018C763.59 482.994 711.715 482.994 679.729 451.018C654.848 426.121 663.445 385.774 663.139 359.028C662.818 332.266 646.855 316.278 620.1 315.972C593.33 315.652 552.941 324.276 528.074 299.417C503.208 274.521 511.805 234.174 511.484 207.42C511.171 180.673 490.304 167.102 468.445 164.364C446.601 161.663 424.839 158.925 400.256 164.364C318.156 182.598 325.112 310.936 400.256 318.613C430.041 321.665 467.416 310.31 492.282 335.198C524.268 367.175 524.268 419.034 492.282 451.01C460.296 482.987 408.421 482.987 376.435 451.01C351.553 426.114 362.897 388.788 359.845 359.02Z" fill="url(#paint0_linear_271_11)"/>
</g>
<path d="M0.0121542 223.42C0.0121542 174.268 42.868 141.281 106.726 141.281C154.833 141.281 192.438 161.032 198.734 190.226L147.686 199.05C143.481 186.872 126.465 178.461 106.508 178.461C75.8425 178.461 54.8278 195.902 54.8278 221.73C54.8278 247.558 78.3584 263.529 113.436 263.529C140.746 263.529 161.749 252.189 163.645 236.425H82.9771V208.701H216.577V295.458H173.307L171.205 270.882H170.998C156.498 288.105 128.361 299.238 97.2583 299.238C39.0759 299.238 0 268.573 0 223.408L0.0121542 223.42Z" fill="white"/>
<path d="M242.842 138.766H292.626V295.47H242.842V138.766Z" fill="white"/>
<path d="M318.053 151.163C318.053 136.881 329.611 127 345.57 127C361.528 127 373.087 136.869 373.087 151.163C373.087 165.456 361.528 175.532 345.57 175.532C329.611 175.532 318.053 165.444 318.053 151.163ZM320.775 187.078H370.352V295.47H320.775V187.078Z" fill="white"/>
<path d="M398.501 187.078H439.887L446.401 214.595H446.608C456.477 195.477 476.86 183.505 501.642 183.505C526.425 183.505 543.441 195.683 549.542 215.021H549.749C559.837 195.27 581.885 183.505 605.841 183.505C637.977 183.505 656.889 202.83 656.889 231.818V295.47H607.105V239.171C607.105 224.052 598.074 215.009 582.529 215.009C563.629 215.009 552.484 226.567 552.484 245.674V295.458H502.906V239.159C502.906 224.039 493.669 214.997 478.331 214.997C459.419 214.997 448.285 226.555 448.285 245.662V295.446H398.501V187.054V187.078Z" fill="white"/>
<path d="M682.291 187.078H725.147L731.662 215.021H731.868C740.267 195.902 763.591 183.505 790.901 183.505C829.552 183.505 854.76 206.404 854.76 241.274C854.76 276.145 829.552 298.837 790.901 298.837C763.797 298.837 740.692 286.658 732.294 267.746H732.087V339.59H682.303V187.078H682.291ZM804.976 241.286C804.976 226.373 790.269 216.504 767.59 216.504C744.91 216.504 730.203 226.373 730.203 241.286C730.203 256.199 745.116 265.862 767.59 265.862C790.063 265.862 804.976 256.199 804.976 241.286Z" fill="white"/>
<path d="M873.028 281.614L886.057 256.406C900.763 265.436 928.074 272.158 952.65 272.158C977.226 272.158 986.682 268.791 986.682 263.759C986.682 259.347 978.915 257.038 963.99 255.992L937.105 253.89C900.557 251.374 881.851 242.55 881.851 222.799C881.851 195.695 912.735 183.517 955.373 183.517C978.271 183.517 1000.95 188.354 1020.07 197.798L1008.3 220.696C994.862 213.769 974.272 208.518 954.74 208.518C937.299 208.518 923.856 211.253 923.856 216.71C923.856 220.915 930.371 222.593 943.388 223.638L970.274 225.947C1009.98 228.888 1029.93 238.126 1029.93 259.772C1029.93 286.876 998.204 298.848 955.774 298.848C924.683 298.848 891.283 291.92 873.003 281.626L873.028 281.614Z" fill="white"/>
<path d="M1048.22 241.067C1048.22 207.242 1083.3 183.505 1133.51 183.505C1183.71 183.505 1215.44 206.404 1215.44 241.274C1215.44 244.422 1215.01 249.041 1213.97 252.614H1100.53C1106.21 265.218 1125.11 270.262 1145.49 270.262C1166.92 270.262 1188.55 265.643 1199.69 259.335L1213.33 282.866C1198.63 292.322 1170.9 298.837 1141.92 298.837C1086.04 298.837 1048.23 276.363 1048.23 241.067H1048.22ZM1165.45 231.405C1164.81 219.007 1150.53 210.609 1133.09 210.609C1115.65 210.609 1101.59 219.226 1099.69 231.405H1165.45Z" fill="white"/>
<defs>
<filter id="filter0_f_271_11" x="213.2" y="0.2" width="745.6" height="482.6" filterUnits="userSpaceOnUse" color-interpolation-filters="sRGB">
<feFlood flood-opacity="0" result="BackgroundImageFix"/>
<feBlend mode="normal" in="SourceGraphic" in2="BackgroundImageFix" result="shape"/>
<feGaussianBlur stdDeviation="3.9" result="effect1_foregroundBlur_271_11"/>
</filter>
<linearGradient id="paint0_linear_271_11" x1="221.004" y1="241.493" x2="951.007" y2="241.493" gradientUnits="userSpaceOnUse">
<stop stop-color="#B936EF"/>
<stop offset="1" stop-color="#8200C8"/>
</linearGradient>
</defs>
</svg>
