<svg width="1216" height="507" viewBox="0 0 1216 507" fill="none" xmlns="http://www.w3.org/2000/svg">
<g filter="url(#filter0_f_271_11)">
<path fill-rule="evenodd" clip-rule="evenodd" d="M359.845 371.02C356.822 341.245 327.634 321.138 303.335 314.521C279.058 307.881 258.692 320.571 237.154 299.04C215.615 277.508 215.615 229.484 237.154 207.953C258.692 186.421 279.058 199.082 303.335 192.472C327.634 185.832 356.822 165.748 359.845 135.972C362.897 106.204 351.561 68.8412 376.435 43.9823C408.421 12.0059 460.296 12.0059 492.282 43.9823C517.149 68.8412 508.566 109.188 508.872 135.972C509.186 162.734 525.141 178.685 551.911 178.998C578.666 179.319 619.063 170.694 643.937 195.583C668.803 220.457 660.206 260.804 660.519 287.58C660.84 314.327 681.707 327.898 703.558 330.606C725.417 333.314 747.164 336.045 771.747 330.606C853.855 312.409 846.907 184.041 771.747 176.357C741.97 173.335 704.603 184.675 679.729 159.802C647.743 127.825 647.743 75.9661 679.729 43.9898C711.715 12.0134 763.59 12.0134 795.577 43.9898C820.443 68.8487 809.114 106.212 812.167 135.98C815.189 165.755 844.377 185.839 868.676 192.479C892.953 199.082 913.32 186.429 934.858 207.96C956.381 229.492 956.381 277.516 934.858 299.047C913.32 320.579 892.953 307.888 868.676 314.528C844.377 321.146 815.189 341.252 812.167 371.028C809.114 400.796 820.443 438.121 795.577 463.018C763.59 494.994 711.715 494.994 679.729 463.018C654.848 438.121 663.445 397.774 663.139 371.028C662.818 344.266 646.855 328.278 620.1 327.972C593.33 327.652 552.941 336.276 528.074 311.417C503.208 286.521 511.805 246.174 511.484 219.42C511.171 192.673 490.304 179.102 468.445 176.364C446.601 173.663 424.839 170.925 400.256 176.364C318.156 194.598 325.112 322.936 400.256 330.613C430.041 333.665 467.416 322.31 492.282 347.198C524.268 379.175 524.268 431.034 492.282 463.01C460.296 494.987 408.421 494.987 376.435 463.01C351.553 438.114 362.897 400.788 359.845 371.02Z" fill="url(#paint0_linear_271_11)"/>
<path fill-rule="evenodd" clip-rule="evenodd" d="M359.845 371.02C356.822 341.245 327.634 321.138 303.335 314.521C279.058 307.881 258.692 320.571 237.154 299.04C215.615 277.508 215.615 229.484 237.154 207.953C258.692 186.421 279.058 199.082 303.335 192.472C327.634 185.832 356.822 165.748 359.845 135.972C362.897 106.204 351.561 68.8412 376.435 43.9823C408.421 12.0059 460.296 12.0059 492.282 43.9823C517.149 68.8412 508.566 109.188 508.872 135.972C509.186 162.734 525.141 178.685 551.911 178.998C578.666 179.319 619.063 170.694 643.937 195.583C668.803 220.457 660.206 260.804 660.519 287.58C660.84 314.327 681.707 327.898 703.558 330.606C725.417 333.314 747.164 336.045 771.747 330.606C853.855 312.409 846.907 184.041 771.747 176.357C741.97 173.335 704.603 184.675 679.729 159.802C647.743 127.825 647.743 75.9661 679.729 43.9898C711.715 12.0134 763.59 12.0134 795.577 43.9898C820.443 68.8487 809.114 106.212 812.167 135.98C815.189 165.755 844.377 185.839 868.676 192.479C892.953 199.082 913.32 186.429 934.858 207.96C956.381 229.492 956.381 277.516 934.858 299.047C913.32 320.579 892.953 307.888 868.676 314.528C844.377 321.146 815.189 341.252 812.167 371.028C809.114 400.796 820.443 438.121 795.577 463.018C763.59 494.994 711.715 494.994 679.729 463.018C654.848 438.121 663.445 397.774 663.139 371.028C662.818 344.266 646.855 328.278 620.1 327.972C593.33 327.652 552.941 336.276 528.074 311.417C503.208 286.521 511.805 246.174 511.484 219.42C511.171 192.673 490.304 179.102 468.445 176.364C446.601 173.663 424.839 170.925 400.256 176.364C318.156 194.598 325.112 322.936 400.256 330.613C430.041 333.665 467.416 322.31 492.282 347.198C524.268 379.175 524.268 431.034 492.282 463.01C460.296 494.987 408.421 494.987 376.435 463.01C351.553 438.114 362.897 400.788 359.845 371.02Z" fill="black" fill-opacity="0.2"/>
</g>
<path d="M0.0121542 235.42C0.0121542 186.268 42.868 153.281 106.726 153.281C154.833 153.281 192.438 173.032 198.734 202.226L147.686 211.05C143.481 198.872 126.465 190.461 106.508 190.461C75.8425 190.461 54.8278 207.902 54.8278 233.73C54.8278 259.558 78.3584 275.529 113.436 275.529C140.746 275.529 161.749 264.189 163.645 248.425H82.9771V220.701H216.577V307.458H173.307L171.205 282.882H170.998C156.498 300.105 128.361 311.238 97.2583 311.238C39.0759 311.238 0 280.573 0 235.408L0.0121542 235.42Z" fill="white"/>
<path d="M242.842 150.766H292.626V307.47H242.842V150.766Z" fill="white"/>
<path d="M318.053 163.163C318.053 148.881 329.611 139 345.57 139C361.528 139 373.087 148.869 373.087 163.163C373.087 177.456 361.528 187.532 345.57 187.532C329.611 187.532 318.053 177.444 318.053 163.163ZM320.775 199.078H370.352V307.47H320.775V199.078Z" fill="white"/>
<path d="M398.501 199.078H439.887L446.401 226.595H446.608C456.477 207.477 476.86 195.505 501.642 195.505C526.425 195.505 543.441 207.683 549.542 227.021H549.749C559.837 207.27 581.885 195.505 605.841 195.505C637.977 195.505 656.889 214.83 656.889 243.818V307.47H607.105V251.171C607.105 236.052 598.074 227.009 582.529 227.009C563.629 227.009 552.484 238.567 552.484 257.674V307.458H502.906V251.159C502.906 236.039 493.669 226.997 478.331 226.997C459.419 226.997 448.285 238.555 448.285 257.662V307.446H398.501V199.054V199.078Z" fill="white"/>
<path d="M682.291 199.078H725.147L731.662 227.021H731.868C740.267 207.902 763.591 195.505 790.901 195.505C829.552 195.505 854.76 218.404 854.76 253.274C854.76 288.145 829.552 310.837 790.901 310.837C763.797 310.837 740.692 298.658 732.294 279.746H732.087V351.59H682.303V199.078H682.291ZM804.976 253.286C804.976 238.373 790.269 228.504 767.59 228.504C744.91 228.504 730.203 238.373 730.203 253.286C730.203 268.199 745.116 277.862 767.59 277.862C790.063 277.862 804.976 268.199 804.976 253.286Z" fill="white"/>
<path d="M873.028 293.614L886.057 268.406C900.763 277.436 928.074 284.158 952.65 284.158C977.226 284.158 986.682 280.791 986.682 275.759C986.682 271.347 978.915 269.038 963.99 267.992L937.105 265.89C900.557 263.374 881.851 254.55 881.851 234.799C881.851 207.695 912.735 195.517 955.373 195.517C978.271 195.517 1000.95 200.354 1020.07 209.798L1008.3 232.696C994.862 225.769 974.272 220.518 954.74 220.518C937.299 220.518 923.856 223.253 923.856 228.71C923.856 232.915 930.371 234.593 943.388 235.638L970.274 237.947C1009.98 240.888 1029.93 250.126 1029.93 271.772C1029.93 298.876 998.204 310.848 955.774 310.848C924.683 310.848 891.283 303.92 873.003 293.626L873.028 293.614Z" fill="white"/>
<path d="M1048.22 253.067C1048.22 219.242 1083.3 195.505 1133.51 195.505C1183.71 195.505 1215.44 218.404 1215.44 253.274C1215.44 256.422 1215.01 261.041 1213.97 264.614H1100.53C1106.21 277.218 1125.11 282.262 1145.49 282.262C1166.92 282.262 1188.55 277.643 1199.69 271.335L1213.33 294.866C1198.63 304.322 1170.9 310.837 1141.92 310.837C1086.04 310.837 1048.23 288.363 1048.23 253.067H1048.22ZM1165.45 243.405C1164.81 231.007 1150.53 222.609 1133.09 222.609C1115.65 222.609 1101.59 231.226 1099.69 243.405H1165.45Z" fill="white"/>
<defs>
<filter id="filter0_f_271_11" x="201" y="0" width="770" height="507" filterUnits="userSpaceOnUse" color-interpolation-filters="sRGB">
<feFlood flood-opacity="0" result="BackgroundImageFix"/>
<feBlend mode="normal" in="SourceGraphic" in2="BackgroundImageFix" result="shape"/>
<feGaussianBlur stdDeviation="10" result="effect1_foregroundBlur_271_11"/>
</filter>
<linearGradient id="paint0_linear_271_11" x1="221.004" y1="253.493" x2="951.007" y2="253.493" gradientUnits="userSpaceOnUse">
<stop stop-color="#B936EF"/>
<stop offset="1" stop-color="#8200C8"/>
</linearGradient>
</defs>
</svg>
