<svg width="1216" height="213" viewBox="0 0 1216 213" fill="none" xmlns="http://www.w3.org/2000/svg">
<path d="M0.0121542 96.4197C0.0121542 47.2679 42.868 14.2812 106.726 14.2812C154.833 14.2812 192.438 34.0319 198.734 63.2264L147.686 72.0504C143.481 59.8719 126.465 51.4611 106.508 51.4611C75.8425 51.4611 54.8278 68.9024 54.8278 94.7302C54.8278 120.558 78.3584 136.529 113.436 136.529C140.746 136.529 161.749 125.189 163.645 109.425H82.9771V81.7009H216.577V168.458H173.307L171.205 143.882H170.998C156.498 161.105 128.361 172.238 97.2583 172.238C39.0759 172.238 0 141.573 0 96.4075L0.0121542 96.4197Z" fill="white"/>
<path d="M242.842 11.7656H292.626V168.47H242.842V11.7656Z" fill="white"/>
<path d="M318.053 24.1626C318.053 9.88141 329.611 0 345.57 0C361.528 0 373.087 9.86925 373.087 24.1626C373.087 38.456 361.528 48.5319 345.57 48.5319C329.611 48.5319 318.053 38.4439 318.053 24.1626ZM320.775 60.0784H370.352V168.47H320.775V60.0784Z" fill="white"/>
<path d="M398.501 60.0782H439.887L446.401 87.5955H446.608C456.477 68.4768 476.86 56.5049 501.642 56.5049C526.425 56.5049 543.441 68.6834 549.542 88.0208H549.749C559.837 68.2702 581.885 56.5049 605.841 56.5049C637.977 56.5049 656.889 75.8301 656.889 104.818V168.47H607.105V112.171C607.105 97.0515 598.074 88.0087 582.529 88.0087C563.629 88.0087 552.484 99.5674 552.484 118.674V168.458H502.906V112.159C502.906 97.0393 493.669 87.9966 478.331 87.9966C459.419 87.9966 448.285 99.5552 448.285 118.662V168.446H398.501V60.054V60.0782Z" fill="white"/>
<path d="M682.291 60.0782H725.147L731.662 88.0208H731.868C740.267 68.9022 763.591 56.5049 790.901 56.5049C829.552 56.5049 854.76 79.4035 854.76 114.274C854.76 149.145 829.552 171.837 790.901 171.837C763.797 171.837 740.692 159.658 732.294 140.746H732.087V212.59H682.303V60.0782H682.291ZM804.976 114.286C804.976 99.373 790.269 89.5037 767.59 89.5037C744.91 89.5037 730.203 99.373 730.203 114.286C730.203 129.199 745.116 138.862 767.59 138.862C790.063 138.862 804.976 129.199 804.976 114.286Z" fill="white"/>
<path d="M873.028 154.614L886.057 129.406C900.763 138.436 928.074 145.158 952.65 145.158C977.226 145.158 986.682 141.791 986.682 136.759C986.682 132.347 978.915 130.038 963.99 128.992L937.105 126.89C900.557 124.374 881.851 115.55 881.851 95.7991C881.851 68.6952 912.735 56.5166 955.373 56.5166C978.271 56.5166 1000.95 61.354 1020.07 70.7978L1008.3 93.6965C994.862 86.7686 974.272 81.5179 954.74 81.5179C937.299 81.5179 923.856 84.2526 923.856 89.7099C923.856 93.9152 930.371 95.5925 943.388 96.6378L970.274 98.9471C1009.98 101.888 1029.93 111.126 1029.93 132.772C1029.93 159.876 998.204 171.848 955.774 171.848C924.683 171.848 891.283 164.92 873.003 154.626L873.028 154.614Z" fill="white"/>
<path d="M1048.22 114.067C1048.22 80.2422 1083.3 56.5049 1133.51 56.5049C1183.71 56.5049 1215.44 79.4035 1215.44 114.274C1215.44 117.422 1215.01 122.041 1213.97 125.614H1100.53C1106.21 138.218 1125.11 143.262 1145.49 143.262C1166.92 143.262 1188.55 138.643 1199.69 132.335L1213.33 155.866C1198.63 165.322 1170.9 171.837 1141.92 171.837C1086.04 171.837 1048.23 149.363 1048.23 114.067H1048.22ZM1165.45 104.405C1164.81 92.0075 1150.53 83.6089 1133.09 83.6089C1115.65 83.6089 1101.59 92.2263 1099.69 104.405H1165.45Z" fill="white"/>
</svg>
