<svg width="22" height="22" viewBox="0 0 22 22" fill="none" xmlns="http://www.w3.org/2000/svg">
<path d="M9.88841 1.24805H7.91322C2.97525 1.24805 1.00006 3.22324 1.00006 8.16121V14.0868C1.00006 19.0248 2.97525 20.9999 7.91322 20.9999H13.8388C18.7768 20.9999 20.752 19.0248 20.752 14.0868V12.1116M13.7499 3.37129C14.4116 5.73164 16.2584 7.57844 18.6286 8.25001M14.8657 2.25546L7.08346 10.0377C6.78718 10.334 6.49091 10.9167 6.43165 11.3413L6.00698 14.314C5.84897 15.3905 6.60942 16.141 7.6859 15.9929L10.6586 15.5682C11.0733 15.509 11.656 15.2127 11.9622 14.9164L19.7444 7.13418C21.0876 5.79105 21.7196 4.23065 19.7444 2.25546C17.7692 0.28027 16.2088 0.912331 14.8657 2.25546Z" stroke="#B936EF" stroke-width="1.5" stroke-miterlimit="10" stroke-linecap="round" stroke-linejoin="round"/>
</svg>
