<svg width="77" height="14" viewBox="0 0 77 14" fill="none" xmlns="http://www.w3.org/2000/svg">
<path d="M0 6.10839C0 2.99436 2.71518 0.905273 6.76092 0.905273C9.80835 0.905273 12.1905 2.1559 12.5901 4.00599L9.35621 4.5647C9.08979 3.79285 8.01233 3.26078 6.7476 3.26078C4.80427 3.26078 3.47371 4.36566 3.47371 6.00261C3.47371 7.63955 4.96412 8.65118 7.18642 8.65118C8.91661 8.65118 10.2472 7.93262 10.3671 6.93431H5.2564V5.17747H13.7201V10.6737H10.9783L10.8451 9.11664H10.8317C9.91335 10.2082 8.12987 10.9134 6.16068 10.9134C2.4754 10.9127 0 8.97011 0 6.10839Z" fill="#F4F4F4"/>
<path d="M15.3838 0.745117H18.5378V10.6734H15.3838V0.745117Z" fill="#F4F4F4"/>
<path d="M20.1475 1.53038C20.1475 0.625315 20.8793 0 21.891 0C22.9026 0 23.6345 0.625315 23.6345 1.53038C23.6345 2.43544 22.9026 3.07407 21.891 3.07407C20.8793 3.07407 20.1475 2.43544 20.1475 1.53038ZM20.3206 3.80596H23.4613V10.6727H20.3206V3.80596Z" fill="#F4F4F4"/>
<path d="M25.2451 3.80605H27.867L28.28 5.54957H28.2933C28.9186 4.3389 30.21 3.57959 31.7804 3.57959C33.3507 3.57959 34.4289 4.35144 34.8145 5.57621H34.8278C35.4664 4.32558 36.8636 3.57959 38.3814 3.57959C40.4172 3.57959 41.6154 4.80358 41.6154 6.64034V10.6728H38.4614V7.1058C38.4614 6.14745 37.8893 5.57543 36.9043 5.57543C35.707 5.57543 35.001 6.30731 35.001 7.51876V10.6728H31.8603V7.1058C31.8603 6.14745 31.2749 5.57543 30.3033 5.57543C29.1051 5.57543 28.3999 6.30731 28.3999 7.51876V10.6728H25.2459V3.80605H25.2451Z" fill="#F4F4F4"/>
<path d="M43.2236 3.80605H45.9388L46.3518 5.57621H46.3651C46.8972 4.36554 48.3743 3.57959 50.1044 3.57959C52.5532 3.57959 54.1502 5.03004 54.1502 7.23901C54.1502 9.44799 52.5532 10.8851 50.1044 10.8851C48.3876 10.8851 46.9238 10.1133 46.3917 8.91514H46.3784V13.4663H43.2244V3.80605H43.2236ZM50.9954 7.2398C50.9954 6.29477 50.0637 5.66946 48.6266 5.66946C47.1894 5.66946 46.2577 6.29477 46.2577 7.2398C46.2577 8.18482 47.2028 8.79681 48.6266 8.79681C50.0504 8.79681 50.9954 8.18482 50.9954 7.2398Z" fill="#F4F4F4"/>
<path d="M55.3084 9.79507L56.1335 8.19809C57.0652 8.77012 58.7954 9.1964 60.3524 9.1964C61.9095 9.1964 62.5081 8.98326 62.5081 8.66433C62.5081 8.38459 62.016 8.23884 61.071 8.17223L59.3675 8.03902C57.0519 7.87916 55.8671 7.32046 55.8671 6.06904C55.8671 4.35217 57.8238 3.58032 60.5248 3.58032C61.9753 3.58032 63.4124 3.88671 64.6239 4.48538L63.8787 5.93583C63.0269 5.49701 61.723 5.16398 60.4849 5.16398C59.38 5.16398 58.5282 5.33716 58.5282 5.68273C58.5282 5.94915 58.9412 6.05572 59.7655 6.12154L61.4691 6.26808C63.9844 6.45458 65.2484 7.03993 65.2484 8.41045C65.2484 10.1273 63.2392 10.8858 60.5507 10.8858C58.5807 10.8858 56.465 10.447 55.3076 9.79429L55.3084 9.79507Z" fill="#F4F4F4"/>
<path d="M66.4062 7.22642C66.4062 5.08406 68.6285 3.58032 71.8092 3.58032C74.9898 3.58032 76.9998 5.03077 76.9998 7.23975C76.9998 7.43956 76.9731 7.73185 76.9065 7.95831H69.7201C70.079 8.7568 71.2771 9.07651 72.5677 9.07651C73.9249 9.07651 75.2962 8.78344 76.0015 8.38459L76.8666 9.875C75.9349 10.4737 74.178 10.8866 72.342 10.8866C68.8017 10.8866 66.4062 9.46283 66.4062 7.22721V7.22642ZM73.8324 6.61443C73.7925 5.82926 72.8874 5.29719 71.7833 5.29719C70.6792 5.29719 69.7875 5.84258 69.6676 6.61443H73.8332H73.8324Z" fill="#F4F4F4"/>
</svg>
