<svg width="592" height="379" viewBox="0 0 592 379" fill="none" xmlns="http://www.w3.org/2000/svg">
<path fill-rule="evenodd" clip-rule="evenodd" d="M112.936 284.64C110.491 260.547 86.8811 244.277 67.2252 238.923C47.5874 233.55 31.113 243.819 13.6907 226.396C-3.73154 208.974 -3.73154 170.115 13.6907 152.693C31.113 135.271 47.5874 145.515 67.2252 140.166C86.8811 134.794 110.491 118.543 112.936 94.4497C115.405 70.3628 106.235 40.1304 126.356 20.0157C152.23 -5.8581 194.192 -5.8581 220.065 20.0157C240.18 40.1304 233.238 72.7775 233.485 94.4497C233.739 116.104 246.645 129.01 268.299 129.264C289.941 129.524 322.619 122.545 342.74 142.684C362.854 162.811 355.9 195.458 356.153 217.124C356.413 238.766 373.292 249.747 390.968 251.938C408.649 254.13 426.241 256.339 446.126 251.938C512.543 237.214 506.923 133.345 446.126 127.127C422.039 124.682 391.813 133.858 371.692 113.731C345.818 87.8575 345.818 45.8955 371.692 20.0217C397.566 -5.85206 439.528 -5.85206 465.402 20.0217C485.516 40.1364 476.352 70.3688 478.821 94.4557C481.266 118.549 504.876 134.8 524.532 140.173C544.17 145.515 560.644 135.277 578.067 152.699C595.477 170.121 595.477 208.98 578.067 226.402C560.644 243.825 544.17 233.556 524.532 238.929C504.876 244.283 481.266 260.553 478.821 284.646C476.352 308.733 485.516 338.935 465.402 359.08C439.528 384.953 397.566 384.953 371.692 359.08C351.565 338.935 358.52 306.288 358.272 284.646C358.013 262.992 345.1 250.055 323.458 249.807C301.804 249.548 269.133 256.526 249.018 236.411C228.903 216.267 235.858 183.619 235.598 161.971C235.345 140.329 218.466 129.349 200.784 127.133C183.114 124.948 165.511 122.732 145.625 127.133C79.2143 141.887 84.8406 245.732 145.625 251.944C169.718 254.413 199.951 245.225 220.065 265.364C245.939 291.238 245.939 333.2 220.065 359.074C194.192 384.947 152.23 384.947 126.356 359.074C106.229 338.929 115.405 308.726 112.936 284.64Z" fill="url(#paint0_linear_17_97)"/>
<defs>
<linearGradient id="paint0_linear_17_97" x1="54.5" y1="0.999994" x2="494.5" y2="436" gradientUnits="userSpaceOnUse">
<stop stop-color="#F14DFF"/>
<stop offset="1" stop-color="#4E0377"/>
</linearGradient>
</defs>
</svg>
